<svg xmlns="http://www.w3.org/2000/svg" width="18" height="18" viewBox="0 0 18 18" aria-hidden="true" focusable="false">
  <path fill="#4285F4" d="M17.64 9.2c0-.63-.06-1.25-.18-1.84H9v3.49h4.85c-.21 1.13-.85 2.09-1.81 2.74l2.6 2.04c1.52-1.4 2.4-3.46 2.4-6.43z"/>
  <path fill="#34A853" d="M3.44 10.5c-.16-.49-.25-1.01-.25-1.5s.09-1.01.25-1.5V4.93H.77C.27 5.93 0 7.08 0 8.5s.27 2.57.77 3.57l2.67-1.57z"/>
  <path fill="#FBBC05" d="M9 18c2.43 0 4.47-.8 5.96-2.17l-2.6-2.04c-.72.49-1.64.79-3.36.79-2.58 0-4.77-1.74-5.56-4.08H.77v2.57C2.25 15.91 5.37 18 9 18z"/>
  <path fill="#EA4335" d="M9 3.5c1.32 0 2.51.45 3.44 1.33l2.58-2.58C13.47.83 11.43 0 9 0 5.36 0 2.25 2.09.77 5.93l2.67 2.07C4.23 5.24 6.42 3.5 9 3.5z"/>
</svg>
